<mxfile host="app.diagrams.net" modified="2021-03-03T11:01:26.999Z" agent="5.0 (Macintosh; Intel Mac OS X 10_13_6) AppleWebKit/537.36 (KHTML, like Gecko) Chrome/88.0.4324.150 Safari/537.36 OPR/74.0.3911.160" etag="U2ChYN_SMC6MWEX-Dm2a" version="13.9.7" type="github">
  <diagram name="Page-1" id="e7e014a7-5840-1c2e-5031-d8a46d1fe8dd">
    <mxGraphModel dx="900" dy="633" grid="1" gridSize="10" guides="1" tooltips="1" connect="1" arrows="1" fold="1" page="1" pageScale="1" pageWidth="1169" pageHeight="826" background="#ffffff" math="0" shadow="0">
      <root>
        <mxCell id="0" />
        <mxCell id="1" parent="0" />
        <mxCell id="xnsoORBqEFnWTqOEyWpl-42" value="&lt;h5&gt;&lt;br&gt;&lt;/h5&gt;" style="html=1;fillColor=#d5e8d4;strokeColor=#82b366;" vertex="1" parent="1">
          <mxGeometry x="460" y="140" width="220" height="140" as="geometry" />
        </mxCell>
        <mxCell id="xnsoORBqEFnWTqOEyWpl-54" style="edgeStyle=orthogonalEdgeStyle;rounded=0;orthogonalLoop=1;jettySize=auto;html=1;exitX=0.5;exitY=0.5;exitDx=0;exitDy=0;exitPerimeter=0;" edge="1" parent="1" source="xnsoORBqEFnWTqOEyWpl-43" target="xnsoORBqEFnWTqOEyWpl-44">
          <mxGeometry relative="1" as="geometry" />
        </mxCell>
        <mxCell id="xnsoORBqEFnWTqOEyWpl-43" value="Receptionist" style="shape=umlActor;verticalLabelPosition=bottom;verticalAlign=top;html=1;" vertex="1" parent="1">
          <mxGeometry x="260" y="152.5" width="52.5" height="105" as="geometry" />
        </mxCell>
        <mxCell id="xnsoORBqEFnWTqOEyWpl-44" value="Issue Bike" style="ellipse;whiteSpace=wrap;html=1;fillColor=#dae8fc;strokeColor=#6c8ebf;opacity=50;" vertex="1" parent="1">
          <mxGeometry x="510" y="170" width="140" height="70" as="geometry" />
        </mxCell>
        <mxCell id="xnsoORBqEFnWTqOEyWpl-52" value="&lt;span style=&quot;color: rgb(0 , 0 , 0) ; font-family: &amp;#34;helvetica&amp;#34; ; font-size: 12px ; font-style: normal ; font-weight: 400 ; letter-spacing: normal ; text-align: center ; text-indent: 0px ; text-transform: none ; word-spacing: 0px ; background-color: rgb(248 , 249 , 250) ; display: inline ; float: none&quot;&gt;System boundary&lt;/span&gt;" style="text;whiteSpace=wrap;html=1;" vertex="1" parent="1">
          <mxGeometry x="530" y="140" width="120" height="30" as="geometry" />
        </mxCell>
        <mxCell id="xnsoORBqEFnWTqOEyWpl-55" value="&lt;h5&gt;&lt;br&gt;&lt;/h5&gt;" style="html=1;fillColor=#d5e8d4;strokeColor=#82b366;" vertex="1" parent="1">
          <mxGeometry x="330" y="930" width="550" height="527" as="geometry" />
        </mxCell>
        <mxCell id="xnsoORBqEFnWTqOEyWpl-57" value="Adinistrator" style="shape=umlActor;verticalLabelPosition=bottom;verticalAlign=top;html=1;" vertex="1" parent="1">
          <mxGeometry x="130" y="952.5" width="52.5" height="105" as="geometry" />
        </mxCell>
        <mxCell id="xnsoORBqEFnWTqOEyWpl-58" value="Mantain bike list" style="ellipse;whiteSpace=wrap;html=1;fillColor=#dae8fc;strokeColor=#6c8ebf;opacity=50;" vertex="1" parent="1">
          <mxGeometry x="380" y="970" width="140" height="70" as="geometry" />
        </mxCell>
        <mxCell id="xnsoORBqEFnWTqOEyWpl-59" value="&lt;span style=&quot;color: rgb(0 , 0 , 0) ; font-family: &amp;#34;helvetica&amp;#34; ; font-size: 12px ; font-style: normal ; font-weight: 400 ; letter-spacing: normal ; text-align: center ; text-indent: 0px ; text-transform: none ; word-spacing: 0px ; background-color: rgb(248 , 249 , 250) ; display: inline ; float: none&quot;&gt;Wheels system&lt;/span&gt;" style="text;whiteSpace=wrap;html=1;" vertex="1" parent="1">
          <mxGeometry x="570" y="940" width="100" height="30" as="geometry" />
        </mxCell>
        <mxCell id="xnsoORBqEFnWTqOEyWpl-61" value="Maintain customer list" style="ellipse;whiteSpace=wrap;html=1;fillColor=#dae8fc;strokeColor=#6c8ebf;opacity=50;" vertex="1" parent="1">
          <mxGeometry x="380" y="1057.5" width="140" height="70" as="geometry" />
        </mxCell>
        <mxCell id="xnsoORBqEFnWTqOEyWpl-63" value="Handle enquires" style="ellipse;whiteSpace=wrap;html=1;fillColor=#dae8fc;strokeColor=#6c8ebf;opacity=50;" vertex="1" parent="1">
          <mxGeometry x="373.75" y="1147" width="140" height="70" as="geometry" />
        </mxCell>
        <mxCell id="xnsoORBqEFnWTqOEyWpl-89" style="edgeStyle=orthogonalEdgeStyle;rounded=0;orthogonalLoop=1;jettySize=auto;html=1;dashed=1;" edge="1" parent="1" source="xnsoORBqEFnWTqOEyWpl-65" target="xnsoORBqEFnWTqOEyWpl-85">
          <mxGeometry relative="1" as="geometry" />
        </mxCell>
        <mxCell id="xnsoORBqEFnWTqOEyWpl-93" style="edgeStyle=orthogonalEdgeStyle;rounded=0;orthogonalLoop=1;jettySize=auto;html=1;entryX=0.448;entryY=0.984;entryDx=0;entryDy=0;entryPerimeter=0;dashed=1;" edge="1" parent="1" source="xnsoORBqEFnWTqOEyWpl-65" target="xnsoORBqEFnWTqOEyWpl-63">
          <mxGeometry relative="1" as="geometry" />
        </mxCell>
        <mxCell id="xnsoORBqEFnWTqOEyWpl-65" value="Issue Bike" style="ellipse;whiteSpace=wrap;html=1;fillColor=#dae8fc;strokeColor=#6c8ebf;opacity=50;" vertex="1" parent="1">
          <mxGeometry x="373.75" y="1247" width="126.25" height="70" as="geometry" />
        </mxCell>
        <mxCell id="xnsoORBqEFnWTqOEyWpl-67" value="Handle bike return" style="ellipse;whiteSpace=wrap;html=1;fillColor=#dae8fc;strokeColor=#6c8ebf;opacity=50;" vertex="1" parent="1">
          <mxGeometry x="550" y="1370" width="140" height="70" as="geometry" />
        </mxCell>
        <mxCell id="xnsoORBqEFnWTqOEyWpl-68" value="Receptionist" style="shape=umlActor;verticalLabelPosition=bottom;verticalAlign=top;html=1;" vertex="1" parent="1">
          <mxGeometry x="110" y="1177" width="52.5" height="105" as="geometry" />
        </mxCell>
        <mxCell id="xnsoORBqEFnWTqOEyWpl-77" value="" style="endArrow=none;html=1;" edge="1" parent="1" target="xnsoORBqEFnWTqOEyWpl-58">
          <mxGeometry width="50" height="50" relative="1" as="geometry">
            <mxPoint x="190" y="1007" as="sourcePoint" />
            <mxPoint x="270" y="1157" as="targetPoint" />
          </mxGeometry>
        </mxCell>
        <mxCell id="xnsoORBqEFnWTqOEyWpl-78" value="" style="endArrow=none;html=1;entryX=0;entryY=0.5;entryDx=0;entryDy=0;" edge="1" parent="1" target="xnsoORBqEFnWTqOEyWpl-61">
          <mxGeometry width="50" height="50" relative="1" as="geometry">
            <mxPoint x="190" y="1007" as="sourcePoint" />
            <mxPoint x="390.0082825534205" y="1015.5383978265122" as="targetPoint" />
          </mxGeometry>
        </mxCell>
        <mxCell id="xnsoORBqEFnWTqOEyWpl-79" value="" style="endArrow=none;html=1;entryX=0.079;entryY=0.752;entryDx=0;entryDy=0;entryPerimeter=0;" edge="1" parent="1" target="xnsoORBqEFnWTqOEyWpl-61">
          <mxGeometry width="50" height="50" relative="1" as="geometry">
            <mxPoint x="170" y="1230" as="sourcePoint" />
            <mxPoint x="390" y="1102.5" as="targetPoint" />
          </mxGeometry>
        </mxCell>
        <mxCell id="xnsoORBqEFnWTqOEyWpl-80" value="" style="endArrow=none;html=1;entryX=0;entryY=0.5;entryDx=0;entryDy=0;" edge="1" parent="1" target="xnsoORBqEFnWTqOEyWpl-63">
          <mxGeometry width="50" height="50" relative="1" as="geometry">
            <mxPoint x="170" y="1227" as="sourcePoint" />
            <mxPoint x="400" y="1112.5" as="targetPoint" />
          </mxGeometry>
        </mxCell>
        <mxCell id="xnsoORBqEFnWTqOEyWpl-81" value="" style="endArrow=none;html=1;entryX=0;entryY=0.5;entryDx=0;entryDy=0;" edge="1" parent="1" target="xnsoORBqEFnWTqOEyWpl-67">
          <mxGeometry width="50" height="50" relative="1" as="geometry">
            <mxPoint x="170" y="1227" as="sourcePoint" />
            <mxPoint x="383.75" y="1192" as="targetPoint" />
          </mxGeometry>
        </mxCell>
        <mxCell id="xnsoORBqEFnWTqOEyWpl-82" value="" style="endArrow=none;html=1;" edge="1" parent="1" target="xnsoORBqEFnWTqOEyWpl-65">
          <mxGeometry width="50" height="50" relative="1" as="geometry">
            <mxPoint x="170" y="1227" as="sourcePoint" />
            <mxPoint x="280" y="1227" as="targetPoint" />
          </mxGeometry>
        </mxCell>
        <mxCell id="xnsoORBqEFnWTqOEyWpl-83" value="Find Bike" style="ellipse;whiteSpace=wrap;html=1;fillColor=#dae8fc;strokeColor=#6c8ebf;opacity=50;" vertex="1" parent="1">
          <mxGeometry x="700" y="1040" width="140" height="70" as="geometry" />
        </mxCell>
        <mxCell id="xnsoORBqEFnWTqOEyWpl-84" value="" style="endArrow=none;html=1;dashed=1;" edge="1" parent="1" target="xnsoORBqEFnWTqOEyWpl-83">
          <mxGeometry width="50" height="50" relative="1" as="geometry">
            <mxPoint x="520" y="1015.7199999999998" as="sourcePoint" />
            <mxPoint x="710" y="1070" as="targetPoint" />
          </mxGeometry>
        </mxCell>
        <mxCell id="xnsoORBqEFnWTqOEyWpl-85" value="Print rceipt" style="ellipse;whiteSpace=wrap;html=1;fillColor=#dae8fc;strokeColor=#6c8ebf;opacity=50;" vertex="1" parent="1">
          <mxGeometry x="600" y="1270" width="90" height="60" as="geometry" />
        </mxCell>
        <mxCell id="xnsoORBqEFnWTqOEyWpl-86" value="&lt;span style=&quot;color: rgb(0 , 0 , 0) ; font-family: &amp;#34;helvetica&amp;#34; ; font-size: 12px ; font-style: normal ; font-weight: 400 ; letter-spacing: normal ; text-align: center ; text-indent: 0px ; text-transform: none ; word-spacing: 0px ; background-color: rgb(248 , 249 , 250) ; display: inline ; float: none&quot;&gt;&amp;lt;&amp;lt;include&amp;gt;&amp;gt;&lt;/span&gt;" style="text;whiteSpace=wrap;html=1;" vertex="1" parent="1">
          <mxGeometry x="520" y="1260" width="70" height="20" as="geometry" />
        </mxCell>
        <mxCell id="xnsoORBqEFnWTqOEyWpl-87" value="&lt;span style=&quot;color: rgb(0 , 0 , 0) ; font-family: &amp;#34;helvetica&amp;#34; ; font-size: 12px ; font-style: normal ; font-weight: 400 ; letter-spacing: normal ; text-align: center ; text-indent: 0px ; text-transform: none ; word-spacing: 0px ; background-color: rgb(248 , 249 , 250) ; display: inline ; float: none&quot;&gt;&amp;lt;&amp;lt;include&amp;gt;&amp;gt;&lt;/span&gt;" style="text;whiteSpace=wrap;html=1;rotation=-15;" vertex="1" parent="1">
          <mxGeometry x="580" y="1100" width="70" height="20" as="geometry" />
        </mxCell>
        <mxCell id="xnsoORBqEFnWTqOEyWpl-88" value="" style="endArrow=none;html=1;dashed=1;entryX=0.037;entryY=0.742;entryDx=0;entryDy=0;entryPerimeter=0;" edge="1" parent="1" source="xnsoORBqEFnWTqOEyWpl-63" target="xnsoORBqEFnWTqOEyWpl-83">
          <mxGeometry width="50" height="50" relative="1" as="geometry">
            <mxPoint x="530" y="1025.7199999999998" as="sourcePoint" />
            <mxPoint x="716.6389108390097" y="1070.12239619148" as="targetPoint" />
          </mxGeometry>
        </mxCell>
        <mxCell id="xnsoORBqEFnWTqOEyWpl-91" value="" style="endArrow=none;html=1;dashed=1;entryX=0.5;entryY=1;entryDx=0;entryDy=0;exitX=0.952;exitY=0.257;exitDx=0;exitDy=0;exitPerimeter=0;" edge="1" parent="1" source="xnsoORBqEFnWTqOEyWpl-67" target="xnsoORBqEFnWTqOEyWpl-83">
          <mxGeometry width="50" height="50" relative="1" as="geometry">
            <mxPoint x="511.47290008988625" y="1172.2005883596698" as="sourcePoint" />
            <mxPoint x="715.1800000000001" y="1101.94" as="targetPoint" />
          </mxGeometry>
        </mxCell>
        <mxCell id="xnsoORBqEFnWTqOEyWpl-92" value="&lt;span style=&quot;color: rgb(0 , 0 , 0) ; font-family: &amp;#34;helvetica&amp;#34; ; font-size: 12px ; font-style: normal ; font-weight: 400 ; letter-spacing: normal ; text-align: center ; text-indent: 0px ; text-transform: none ; word-spacing: 0px ; background-color: rgb(248 , 249 , 250) ; display: inline ; float: none&quot;&gt;&amp;lt;&amp;lt;include&amp;gt;&amp;gt;&lt;/span&gt;" style="text;whiteSpace=wrap;html=1;rotation=-75;" vertex="1" parent="1">
          <mxGeometry x="690" y="1191.5" width="70" height="20" as="geometry" />
        </mxCell>
        <mxCell id="xnsoORBqEFnWTqOEyWpl-94" value="&lt;span style=&quot;color: rgb(0 , 0 , 0) ; font-family: &amp;#34;helvetica&amp;#34; ; font-size: 12px ; font-style: normal ; font-weight: 400 ; letter-spacing: normal ; text-align: center ; text-indent: 0px ; text-transform: none ; word-spacing: 0px ; background-color: rgb(248 , 249 , 250) ; display: inline ; float: none&quot;&gt;&amp;lt;&amp;lt;include&amp;gt;&amp;gt;&lt;/span&gt;" style="text;whiteSpace=wrap;html=1;" vertex="1" parent="1">
          <mxGeometry x="360" y="1219.5" width="70" height="20" as="geometry" />
        </mxCell>
      </root>
    </mxGraphModel>
  </diagram>
</mxfile>
